HIERARCHY
ROOT Hips
{
    OFFSET 0.000000 0.000000 0.000000
    CHANNELS 6 Xposition Yposition Zposition Zrotation Xrotation Yrotation
    JOINT Spine
    {
        OFFSET -0.000000 7.595339 0.000000
        CHANNELS 3 Zrotation Xrotation Yrotation
        JOINT Spine1
        {
            OFFSET -0.000000 23.501528 0.000000
            CHANNELS 3 Zrotation Xrotation Yrotation
            JOINT Neck
            {
                OFFSET -0.000000 23.405012 2.127728
                CHANNELS 3 Zrotation Xrotation Yrotation
                JOINT Head
                {
                    OFFSET -0.000000 12.967652 -1.852522
                    CHANNELS 3 Zrotation Xrotation Yrotation
                    End Site
                    {
                        OFFSET -0.000000 23.156521 0.000000
                    }
                }
            }
            JOINT LeftShoulder
            {
                OFFSET 3.622064 22.473162 -0.132728
                CHANNELS 3 Zrotation Xrotation Yrotation
                JOINT LeftArm
                {
                    OFFSET 8.177839 0.000000 0.000000
                    CHANNELS 3 Zrotation Xrotation Yrotation
                    JOINT LeftForeArm
                    {
                        OFFSET 30.104038 0.000000 0.000000
                        CHANNELS 3 Zrotation Xrotation Yrotation
                        JOINT LeftHand
                        {
                            OFFSET 24.466351 0.000000 0.000000
                            CHANNELS 3 Zrotation Xrotation Yrotation
                            End Site
                            {
                                OFFSET 13.893912 0.000000 0.000000
                            }
                        }
                    }
                }
            }
            JOINT RightShoulder
            {
                OFFSET -3.633604 22.473162 -0.132728
                CHANNELS 3 Zrotation Xrotation Yrotation
                JOINT RightArm
                {
                    OFFSET -8.177839 0.000000 0.000000
                    CHANNELS 3 Zrotation Xrotation Yrotation
                    JOINT RightForeArm
                    {
                        OFFSET -30.104038 0.000000 0.000000
                        CHANNELS 3 Zrotation Xrotation Yrotation
                        JOINT RightHand
                        {
                            OFFSET -24.466351 0.000000 0.000000
                            CHANNELS 3 Zrotation Xrotation Yrotation
                            End Site
                            {
                                OFFSET -13.893912 0.000000 0.000000
                            }
                        }
                    }
                }
            }
        }
    }
    JOINT LeftUpLeg
    {
        OFFSET 9.262609 0.000000 0.000000
        CHANNELS 3 Zrotation Xrotation Yrotation
        JOINT LeftLeg
        {
            OFFSET -0.000000 -35.489674 0.000000
            CHANNELS 3 Zrotation Xrotation Yrotation
            JOINT LeftFoot
            {
                OFFSET -0.000000 -38.202274 0.000000
                CHANNELS 3 Zrotation Xrotation Yrotation
                JOINT LeftToeBase
                {
                    OFFSET -0.000000 -6.020695 13.893912
                    CHANNELS 3 Zrotation Xrotation Yrotation
                    End Site
                    {
                        OFFSET -0.000000 0.000000 3.705043
                    }
                }
            }
        }
    }
    JOINT RightUpLeg
    {
        OFFSET -9.262609 0.000000 0.000000
        CHANNELS 3 Zrotation Xrotation Yrotation
        JOINT RightLeg
        {
            OFFSET -0.000000 -35.489674 0.000000
            CHANNELS 3 Zrotation Xrotation Yrotation
            JOINT RightFoot
            {
                OFFSET -0.000000 -38.202274 0.000000
                CHANNELS 3 Zrotation Xrotation Yrotation
                JOINT RightToeBase
                {
                    OFFSET -0.000000 -6.020695 13.893912
                    CHANNELS 3 Zrotation Xrotation Yrotation
                    End Site
                    {
                        OFFSET -0.000000 0.000000 3.705043
                    }
                }
            }
        }
    }
}
MOTION
Frames:    13
Frame Time:    0.004000
-15.598133    75.930496    -199.396210    -0.304592    -0.054677    -4.193162    0.163084    -8.332159    0.394837    1.732400    0.035310    0.382618    -3.505606    24.797417    -3.852128    2.337897    2.029425    -4.007278    12.169162    2.079732    14.104639    -17.943716    -0.652150    -5.241788    1.877898    1.310176    -2.468150    0.832106    1.333126    -2.409731    -9.357210    2.192782    19.182077    15.941688    -2.601208    -3.671664    -1.833964    0.074575    1.612380    -3.645499    0.117926    -0.550257    2.474830    11.420543    -1.341276    -0.591159    -7.931678    -0.385604    0.752273    -3.029894    16.850279    0.000000    0.000000    0.000000    -2.297467    0.808118    0.859038    -1.008669    5.435925    3.627144    0.061802    -6.187559    -2.899907    0.000000    0.000000    0.000000    
-15.599735    75.930054    -199.394974    -0.305258    -0.064975    -4.194024    0.169614    -8.325769    0.392482    1.717649    0.036664    0.379730    -3.477143    24.812078    -3.855741    2.304155    2.000977    -4.012839    12.180225    2.080896    14.120159    -17.949520    -0.640668    -5.253515    1.883237    1.310975    -2.458873    0.811925    1.334220    -2.427580    -9.359119    2.154413    19.208857    15.962521    -2.595652    -3.704740    -1.830890    0.082027    1.618998    -3.619687    0.125132    -0.542073    2.480264    11.426020    -1.364808    -0.601107    -7.919860    -0.356001    0.771822    -3.033682    16.841570    0.000000    0.000000    0.000000    -2.292466    0.823396    0.865785    -1.017281    5.427295    3.569861    0.197871    -6.241114    -2.896716    0.000000    0.000000    0.000000    
-15.601476    75.928749    -199.398422    -0.309797    -0.054945    -4.200835    0.169388    -8.334415    0.395553    1.729328    0.031687    0.382715    -3.492320    24.804773    -3.854814    2.321866    2.021989    -4.011073    12.166655    2.082191    14.105059    -17.942698    -0.644068    -5.238050    1.890620    1.308934    -2.458507    0.769621    1.333141    -2.433390    -9.365652    2.166622    19.204903    15.962954    -2.591794    -3.698553    -1.832296    0.083316    1.621653    -3.602103    0.126737    -0.540973    2.482758    11.431525    -1.348996    -0.588911    -7.952179    -0.389587    0.750163    -3.027002    16.859348    0.000000    0.000000    0.000000    -2.285806    0.811020    0.842420    -1.017657    5.420321    3.548373    0.057735    -6.165748    -2.792261    0.000000    0.000000    0.000000    
-15.601686    75.928833    -199.399506    -0.306159    -0.059697    -4.202136    0.163804    -8.330935    0.393350    1.736645    0.037053    0.380986    -3.491794    24.798954    -3.856935    2.302539    2.007617    -4.015196    12.162661    2.066493    14.119138    -17.945654    -0.640387    -5.239345    1.887806    1.300569    -2.461717    0.768835    1.324729    -2.443556    -9.367585    2.171401    19.187796    15.958348    -2.578954    -3.673372    -1.831436    0.078347    1.617945    -3.596777    0.121584    -0.537701    2.473203    11.438161    -1.344828    -0.584710    -7.961614    -0.344403    0.765870    -3.012175    16.824890    0.000000    0.000000    0.000000    -2.294472    0.812784    0.852882    -0.999553    5.421422    3.600123    0.151899    -6.215317    -2.910249    0.000000    0.000000    0.000000    
-15.603483    75.926941    -199.400803    -0.309556    -0.056704    -4.202063    0.169316    -8.331166    0.392854    1.726990    0.024726    0.380301    -3.477191    24.807550    -3.860131    2.299387    2.013215    -4.018104    12.172027    2.070199    14.110090    -17.949354    -0.646862    -5.227981    1.893594    1.295913    -2.461663    0.739834    1.320746    -2.456311    -9.362660    2.158087    19.206110    15.973926    -2.558342    -3.695269    -1.837948    0.077268    1.620842    -3.576225    0.120216    -0.537584    2.486217    11.416053    -1.363950    -0.595201    -7.917445    -0.401499    0.778195    -3.050255    16.881041    0.000000    0.000000    0.000000    -2.288382    0.808165    0.842440    -1.013740    5.430011    3.627540    0.205633    -6.257506    -2.932037    0.000000    0.000000    0.000000    
-15.604460    75.928642    -199.402588    -0.307359    -0.048614    -4.211781    0.168428    -8.344790    0.396648    1.732926    0.032665    0.383826    -3.491437    24.789268    -3.866197    2.304832    2.042332    -4.024909    12.165213    2.051038    14.116631    -17.942789    -0.662031    -5.226615    1.876923    1.294273    -2.464916    0.734765    1.318959    -2.452938    -9.371877    2.168421    19.207130    15.968644    -2.568278    -3.696101    -1.824314    0.087293    1.627789    -3.576358    0.129802    -0.520054    2.481031    11.423700    -1.351919    -0.591100    -7.954737    -0.388500    0.757435    -3.027169    16.873198    0.000000    0.000000    0.000000    -2.286549    0.791258    0.846555    -1.009233    5.433340    3.546939    0.058056    -6.181052    -2.808817    0.000000    0.000000    0.000000    
-15.607407    75.928192    -199.401093    -0.308877    -0.063048    -4.205689    0.163665    -8.333940    0.388441    1.732986    0.034643    0.376038    -3.489795    24.794973    -3.861528    2.307317    2.025442    -4.019458    12.178612    2.061138    14.129593    -17.961086    -0.652605    -5.231088    1.890898    1.271355    -2.468434    0.710460    1.296901    -2.451998    -9.364060    2.192293    19.195236    15.955810    -2.575294    -3.664306    -1.821181    0.077481    1.622362    -3.575459    0.119949    -0.528712    2.479753    11.432157    -1.342985    -0.583897    -7.940845    -0.386393    0.766037    -3.028135    16.858696    0.000000    0.000000    0.000000    -2.283236    0.811914    0.854544    -1.019938    5.422336    3.594770    0.073544    -6.184159    -2.830622    0.000000    0.000000    0.000000    
-15.607682    75.925377    -199.402313    -0.309951    -0.067266    -4.210336    0.163533    -8.325157    0.389714    1.739691    0.024835    0.377438    -3.495115    24.799879    -3.868334    2.305105    2.022897    -4.027380    12.165568    2.057440    14.141303    -17.956161    -0.637390    -5.242058    1.897208    1.254827    -2.463505    0.678100    1.281018    -2.471708    -9.374181    2.177817    19.215651    15.973243    -2.549978    -3.692456    -1.829349    0.086772    1.628931    -3.552494    0.129323    -0.526826    2.475448    11.445832    -1.325767    -0.581572    -7.951365    -0.372025    0.788156    -3.030728    16.840143    0.000000    0.000000    0.000000    -2.287183    0.818694    0.857624    -1.004867    5.427965    3.590534    0.164812    -6.248891    -2.905502    0.000000    0.000000    0.000000    
-15.607673    75.926552    -199.404007    -0.310716    -0.062987    -4.216518    0.168422    -8.332669    0.392277    1.735419    0.026711    0.379590    -3.498715    24.788324    -3.866153    2.314780    2.046454    -4.024275    12.164037    2.061708    14.137097    -17.956570    -0.644322    -5.235808    1.892957    1.239406    -2.468752    0.689979    1.265370    -2.462820    -9.378685    2.174027    19.217575    15.982060    -2.543785    -3.691688    -1.825623    0.087719    1.627070    -3.571105    0.130951    -0.534837    2.480019    11.438860    -1.333610    -0.586204    -7.949380    -0.374582    0.770330    -3.023866    16.853352    0.000000    0.000000    0.000000    -2.286124    0.810270    0.854799    -1.011412    5.427275    3.616410    0.051795    -6.192035    -2.846810    0.000000    0.000000    0.000000    
-15.609123    75.926399    -199.406433    -0.308133    -0.057563    -4.210523    0.171824    -8.339618    0.386306    1.719404    0.027680    0.373469    -3.475251    24.794254    -3.874164    2.287801    2.029709    -4.033914    12.142368    2.210859    14.168310    -17.969700    -0.798390    -5.306921    1.891321    1.242256    -2.466766    0.684304    1.268203    -2.483051    -9.350032    2.187562    19.210173    15.960190    -2.542761    -3.673267    -1.823305    0.092017    1.624632    -3.580147    0.134953    -0.531165    2.482874    11.425088    -1.344700    -0.591157    -7.938736    -0.374384    0.758145    -3.041070    16.855055    0.000000    0.000000    0.000000    -2.288031    0.799747    0.835582    -1.008524    5.432377    3.660133    0.073264    -6.187729    -2.895072    0.000000    0.000000    0.000000    
-15.609784    75.926498    -199.408340    -0.309645    -0.056511    -4.213259    0.171850    -8.342319    0.385132    1.722085    0.030079    0.372244    -3.482113    24.789225    -3.873212    2.298231    2.032732    -4.032074    12.146263    2.205756    14.179880    -17.982328    -0.773259    -5.312710    1.905856    1.225503    -2.465318    0.660827    1.252195    -2.488146    -9.353875    2.188942    19.212885    15.965837    -2.532495    -3.673329    -1.824091    0.097255    1.626434    -3.592433    0.140250    -0.527283    2.484151    11.424467    -1.336605    -0.592676    -7.944140    -0.369112    0.768880    -3.030877    16.851999    0.000000    0.000000    0.000000    -2.285671    0.797000    0.844465    -1.003026    5.436004    3.573726    0.143818    -6.242933    -2.863113    0.000000    0.000000    0.000000    
-15.610334    75.925522    -199.405365    -0.306691    -0.071562    -4.220408    0.157988    -8.329685    0.390353    1.748810    0.027559    0.378630    -3.510037    24.795807    -3.877901    2.315059    2.027935    -4.037297    12.122581    2.198411    14.165207    -17.973343    -0.768757    -5.300545    1.895953    1.213503    -2.469185    0.701332    1.239205    -2.481519    -9.382188    2.178781    19.225153    15.984275    -2.521526    -3.698415    -1.819476    0.103105    1.628638    -3.603137    0.145669    -0.530935    2.481346    11.440405    -1.323933    -0.598612    -7.937131    -0.381417    0.761838    -3.051687    16.857189    0.000000    0.000000    0.000000    -2.288837    0.814854    0.869456    -1.010687    5.432295    3.585123    0.191567    -6.247733    -2.889853    0.000000    0.000000    0.000000    
-15.611957    75.925430    -199.407928    -0.308997    -0.068696    -4.223833    0.158732    -8.328699    0.390537    1.755282    0.023662    0.378642    -3.525591    24.781824    -3.881321    2.324759    2.048321    -4.040874    12.112929    2.210288    14.175416    -17.974161    -0.767737    -5.311232    1.908120    1.218955    -2.464960    0.633408    1.246274    -2.493216    -9.394217    2.175919    19.220009    15.999118    -2.513934    -3.695040    -1.831919    0.103577    1.635447    -3.599028    0.146283    -0.527039    2.483383    11.438617    -1.321871    -0.593433    -7.941635    -0.378130    0.778282    -3.040079    16.849909    0.000000    0.000000    0.000000    -2.283688    0.806465    0.843744    -1.018974    5.443549    3.664584    0.052394    -6.205311    -2.889688    0.000000    0.000000    0.000000    
